<!DOCTYPE svg PUBLIC "-//W3C//DTD SVG 1.1//EN" "http://www.w3.org/Graphics/SVG/1.1/DTD/svg11.dtd">
<!-- Uploaded to: SVG Repo, www.svgrepo.com, Transformed by: SVG Repo Mixer Tools -->
<svg height="800px" width="800px" version="1.1" id="Layer_1" xmlns="http://www.w3.org/2000/svg" xmlns:xlink="http://www.w3.org/1999/xlink" viewBox="0 0 512 512" xml:space="preserve" fill="#000000">
<g id="SVGRepo_bgCarrier" stroke-width="0"/>
<g id="SVGRepo_tracerCarrier" stroke-linecap="round" stroke-linejoin="round"/>
<g id="SVGRepo_iconCarrier"> <circle style="fill:#9050f2;" cx="256" cy="256" r="256"/> <path style="fill:#FFFFFF;" d="M360.24,135.92v182.064h-0.304c0.144,1.296,0.304,2.72,0.304,4.096 c0,20.32-20.672,36.784-46.208,36.784s-46.208-16.448-46.208-36.784c0-20.32,20.672-36.784,46.208-36.784 c10.832,0,20.752,3.04,28.64,7.968V208.48l-117.344,18.496v112c0,20.32-20.672,36.784-46.208,36.784s-46.208-16.448-46.208-36.784 c0-20.32,20.672-36.784,46.208-36.784c11.52,0,21.968,3.344,30.08,8.864V166.464L360.24,135.92"/> </g>
</svg>